<?xml version="1.0" encoding="utf-8" ?>
<svg xmlns="http://www.w3.org/2000/svg">
    <symbol viewBox="0 0 20 28" id="user" xmlns="http://www.w3.org/2000/svg">
        <path d="M20 21.859c0 2.281-1.5 4.141-3.328 4.141h-13.344c-1.828 0-3.328-1.859-3.328-4.141 0-4.109 1.016-8.859 5.109-8.859 1.266 1.234 2.984 2 4.891 2s3.625-0.766 4.891-2c4.094 0 5.109 4.75 5.109 8.859zM16 8c0 3.313-2.688 6-6 6s-6-2.688-6-6 2.688-6 6-6 6 2.688 6 6z"></path>
    </symbol>
    <symbol viewBox="0 0 16 16" id="menu" xmlns="http://www.w3.org/2000/svg">
        <path d="M0 0h4v4H0V0zm0 6h4v4H0V6zm0 6h4v4H0v-4zM6 0h4v4H6V0zm0 6h4v4H6V6zm0 6h4v4H6v-4zm6-12h4v4h-4V0zm0 6h4v4h-4V6zm0 6h4v4h-4v-4z" fill-rule="evenodd"/>
    </symbol>
    <symbol viewBox="0 0 16 20" id="dollar" xmlns="http://www.w3.org/2000/svg">
        <path d="M12 20.75C11.8019 20.7474 11.6126 20.6676 11.4725 20.5275C11.3324 20.3874 11.2526 20.1981 11.25 20V4C11.25 3.80109 11.329 3.61032 11.4697 3.46967C11.6103 3.32902 11.8011 3.25 12 3.25C12.1989 3.25 12.3897 3.32902 12.5303 3.46967C12.671 3.61032 12.75 3.80109 12.75 4V20C12.7474 20.1981 12.6676 20.3874 12.5275 20.5275C12.3874 20.6676 12.1981 20.7474 12 20.75Z" fill="#000000"/>
        <path d="M13.5 18.75H7C6.80109 18.75 6.61032 18.671 6.46967 18.5303C6.32902 18.3897 6.25 18.1989 6.25 18C6.25 17.8011 6.32902 17.6103 6.46967 17.4697C6.61032 17.329 6.80109 17.25 7 17.25H13.5C14.1615 17.3089 14.8199 17.1064 15.3339 16.6859C15.8479 16.2653 16.1768 15.6601 16.25 15C16.1768 14.3399 15.8479 13.7347 15.3339 13.3141C14.8199 12.8935 14.1615 12.691 13.5 12.75H10.5C9.97449 12.7839 9.44746 12.7136 8.94915 12.5433C8.45085 12.373 7.99107 12.106 7.5962 11.7576C7.20134 11.4092 6.87915 10.9863 6.64814 10.513C6.41712 10.0398 6.28182 9.52562 6.25 8.99998C6.28182 8.47434 6.41712 7.96016 6.64814 7.48694C6.87915 7.01371 7.20134 6.59076 7.5962 6.24235C7.99107 5.89394 8.45085 5.62692 8.94915 5.45663C9.44746 5.28633 9.97449 5.21611 10.5 5.24998H16C16.1989 5.24998 16.3897 5.329 16.5303 5.46965C16.671 5.61031 16.75 5.80107 16.75 5.99998C16.75 6.1989 16.671 6.38966 16.5303 6.53031C16.3897 6.67097 16.1989 6.74998 16 6.74998H10.5C9.83846 6.69103 9.18013 6.89353 8.6661 7.3141C8.15206 7.73468 7.82321 8.33987 7.75 8.99998C7.82321 9.6601 8.15206 10.2653 8.6661 10.6859C9.18013 11.1064 9.83846 11.3089 10.5 11.25H13.5C14.0255 11.2161 14.5525 11.2863 15.0508 11.4566C15.5492 11.6269 16.0089 11.8939 16.4038 12.2423C16.7987 12.5908 17.1208 13.0137 17.3519 13.4869C17.5829 13.9602 17.7182 14.4743 17.75 15C17.7182 15.5256 17.5829 16.0398 17.3519 16.513C17.1208 16.9863 16.7987 17.4092 16.4038 17.7576C16.0089 18.106 15.5492 18.373 15.0508 18.5433C14.5525 18.7136 14.0255 18.7839 13.5 18.75Z" fill="#000000"/>
    </symbol>
    <symbol viewBox="0 -3.5 32 32" id="mail" xmlns="http://www.w3.org/2000/svg">
       <g stroke="none" stroke-width="1" fill="none" fill-rule="evenodd" >
            <g transform="translate(-414.000000, -261.000000)" fill="#000000">
                <path d="M430,275.916 L426.684,273.167 L415.115,285.01 L444.591,285.01 L433.235,273.147 L430,275.916 L430,275.916 Z M434.89,271.89 L445.892,283.329 C445.955,283.107 446,282.877 446,282.634 L446,262.862 L434.89,271.89 L434.89,271.89 Z M414,262.816 L414,282.634 C414,282.877 414.045,283.107 414.108,283.329 L425.147,271.927 L414,262.816 L414,262.816 Z M445,261 L415,261 L430,273.019 L445,261 L445,261 Z" id="mail">

                </path>
            </g>
        </g>
    </symbol>
    <symbol viewBox="-143 145 512 512" id="git" xmlns="http://www.w3.org/2000/svg">
        <g>
            <path d="M177.1,398.4c-8.6-1.5-17.6-1.3-26.4-0.8c-20,1.1-40,3-60,1.2c-9.5-0.9-19.1-1.8-28.7-1.6c-17.4,0.3-32,6-40.6,22.6
		c-4.3,8.2-5.3,17-5,26.1c0.7,25.6,11.8,40.2,36.2,47.5c19.6,5.8,39.7,6.6,59.9,6.2c7.5,0,15,0.4,22.5-0.1
		c15.5-0.9,30.7-3.2,45.4-8.6c15.2-5.6,24.3-16.3,27.6-31.8c1.3-6,1.9-12.3,1.8-18.4C209.6,420,195.6,401.5,177.1,398.4z
		 M78.7,466.1c-6.5,7.1-15.9,7.2-22.6,0.3c-4.9-5-7.7-12.7-7.7-22.3c0.2-6.5,2.1-13.6,7.7-19.3c6.7-6.9,16.1-6.8,22.6,0.2
		C88.5,435.6,88.5,455.5,78.7,466.1z M169.6,466.6c-6.1,6.3-14.9,6.5-21.4,0.7c-11.2-10.2-11.2-32.9,0-43.2
		c6.4-5.9,15.2-5.7,21.4,0.6c5.7,5.8,7.6,13.1,7.9,20.9C177.2,453.5,175.2,460.7,169.6,466.6z"/>
            <path d="M113,145c-141.4,0-256,114.6-256,256s114.6,256,256,256s256-114.6,256-256S254.4,145,113,145z M244.2,423.4
		c-1.4,11.4-3.8,23.1-7.9,33.8c-12,30.7-36,47.6-67.8,52.7c-18.2,2.9-36.9,3-57.1,4.5c-18.1-1.6-38-1.8-57.3-5.2
		c-37.4-6.6-62.8-32.8-70.2-70.3c-3.8-19.1-4.9-38.3,1-57.3c3.1-9.8,8.2-18.5,14.8-26.4c0.9-1,1.7-2.5,1.6-3.8
		c-1.1-17.2,0.9-34.2,6-50.6c4.2-13.7,1.1-12.9,16.3-8.9c18.3,4.8,34.3,14.7,50,25c1.8,1.2,4.6,1.7,6.8,1.3
		c22.2-3.4,44.3-3.6,66.5,0.3c1.6,0.3,3.7-0.3,5.2-1.2c13.5-8.8,27.4-16.7,42.6-22.2c5.5-2,11.3-3.3,16.9-5c2.5-0.7,3.6,0.2,4.5,2.6
		c6.8,19,9.6,38.5,8.6,58.6c-0.1,1.1,0.5,2.6,1.2,3.5C243,374.6,247.3,398.2,244.2,423.4z"/>
        </g>
    </symbol>
    <symbol viewBox="-143 145 512 512" id="linkedin" xmlns="http://www.w3.org/2000/svg">
        <path d="M113,145c-141.4,0-256,114.6-256,256s114.6,256,256,256s256-114.6,256-256S254.4,145,113,145z M41.4,508.1H-8.5V348.4h49.9
            V508.1z M15.1,328.4h-0.4c-18.1,0-29.8-12.2-29.8-27.7c0-15.8,12.1-27.7,30.5-27.7c18.4,0,29.7,11.9,30.1,27.7
            C45.6,316.1,33.9,328.4,15.1,328.4z M241,508.1h-56.6v-82.6c0-21.6-8.8-36.4-28.3-36.4c-14.9,0-23.2,10-27,19.6
            c-1.4,3.4-1.2,8.2-1.2,13.1v86.3H71.8c0,0,0.7-146.4,0-159.7h56.1v25.1c3.3-11,21.2-26.6,49.8-26.6c35.5,0,63.3,23,63.3,72.4V508.1z
	    "/>
    </symbol>
    <symbol viewBox="-143 145 512 512" id="inst" xmlns="http://www.w3.org/2000/svg">
        <g>
            <path d="M113,446c24.8,0,45.1-20.2,45.1-45.1c0-9.8-3.2-18.9-8.5-26.3c-8.2-11.3-21.5-18.8-36.5-18.8s-28.3,7.4-36.5,18.8
		        c-5.3,7.4-8.5,16.5-8.5,26.3C68,425.8,88.2,446,113,446z"
            />
            <polygon points="211.4,345.9 211.4,308.1 211.4,302.5 205.8,302.5 168,302.6 168.2,346 "/>
            <path d="M329,145h-432c-22.1,0-40,17.9-40,40v432c0,22.1,17.9,40,40,40h432c22.1,0,40-17.9,40-40V185C369,162.9,351.1,145,329,145z		M241,374.7v104.8c0,27.3-22.2,49.5-49.5,49.5h-157C7.2,529-15,506.8-15,479.5V374.7v-52.3c0-27.3,22.2-49.5,49.5-49.5h157c27.3,0,49.5,22.2,49.5,49.5V374.7z"
            />
            <path d="M183,401c0,38.6-31.4,70-70,70c-38.6,0-70-31.4-70-70c0-9.3,1.9-18.2,5.2-26.3H10v104.8C10,493,21,504,34.5,504h157c13.5,0,24.5-11,24.5-24.5V374.7h-38.2C181.2,382.8,183,391.7,183,401z"/>
        </g>
    </symbol>
    <symbol viewBox="0 0 24 24" id="diamond" xmlns="http://www.w3.org/2000/svg">
        <path d="M2.49954 9H21.4995M9.99954 3L7.99954 9L11.9995 20.5L15.9995 9L13.9995 3M12.6141 20.2625L21.5727 9.51215C21.7246 9.32995 21.8005 9.23885 21.8295 9.13717C21.8551 9.04751 21.8551 8.95249 21.8295 8.86283C21.8005 8.76114 21.7246 8.67005 21.5727 8.48785L17.2394 3.28785C17.1512 3.18204 17.1072 3.12914 17.0531 3.09111C17.0052 3.05741 16.9518 3.03238 16.8953 3.01717C16.8314 3 16.7626 3 16.6248 3H7.37424C7.2365 3 7.16764 3 7.10382 3.01717C7.04728 3.03238 6.99385 3.05741 6.94596 3.09111C6.89192 3.12914 6.84783 3.18204 6.75966 3.28785L2.42633 8.48785C2.2745 8.67004 2.19858 8.76114 2.16957 8.86283C2.144 8.95249 2.144 9.04751 2.16957 9.13716C2.19858 9.23885 2.2745 9.32995 2.42633 9.51215L11.385 20.2625C11.596 20.5158 11.7015 20.6424 11.8279 20.6886C11.9387 20.7291 12.0603 20.7291 12.1712 20.6886C12.2975 20.6424 12.4031 20.5158 12.6141 20.2625Z" stroke="#000000" stroke-width="2" stroke-linecap="round" stroke-linejoin="round"/>
    </symbol>
    <symbol viewBox="0 0 24 24" id="heart" xmlns="http://www.w3.org/2000/svg">
        <path d="M8.10627 18.2468C5.29819 16.0833 2 13.5422 2 9.1371C2 4.27416 7.50016 0.825464 12 5.50063L14 7.49928C14.2929 7.79212 14.7678 7.79203 15.0607 7.49908C15.3535 7.20614 15.3534 6.73127 15.0605 6.43843L13.1285 4.50712C17.3685 1.40309 22 4.67465 22 9.1371C22 13.5422 18.7018 16.0833 15.8937 18.2468C15.6019 18.4717 15.3153 18.6925 15.0383 18.9109C14 19.7294 13 20.5 12 20.5C11 20.5 10 19.7294 8.96173 18.9109C8.68471 18.6925 8.39814 18.4717 8.10627 18.2468Z" />
    </symbol>
    <symbol viewBox="0 0 24 24" id="setting" xmlns="http://www.w3.org/2000/svg">
        <path d="M20.1 9.2214C18.29 9.2214 17.55 7.9414 18.45 6.3714C18.97 5.4614 18.66 4.3014 17.75 3.7814L16.02 2.7914C15.23 2.3214 14.21 2.6014 13.74 3.3914L13.63 3.5814C12.73 5.1514 11.25 5.1514 10.34 3.5814L10.23 3.3914C9.78 2.6014 8.76 2.3214 7.97 2.7914L6.24 3.7814C5.33 4.3014 5.02 5.4714 5.54 6.3814C6.45 7.9414 5.71 9.2214 3.9 9.2214C2.86 9.2214 2 10.0714 2 11.1214V12.8814C2 13.9214 2.85 14.7814 3.9 14.7814C5.71 14.7814 6.45 16.0614 5.54 17.6314C5.02 18.5414 5.33 19.7014 6.24 20.2214L7.97 21.2114C8.76 21.6814 9.78 21.4014 10.25 20.6114L10.36 20.4214C11.26 18.8514 12.74 18.8514 13.65 20.4214L13.76 20.6114C14.23 21.4014 15.25 21.6814 16.04 21.2114L17.77 20.2214C18.68 19.7014 18.99 18.5314 18.47 17.6314C17.56 16.0614 18.3 14.7814 20.11 14.7814C21.15 14.7814 22.01 13.9314 22.01 12.8814V11.1214C22 10.0814 21.15 9.2214 20.1 9.2214ZM12 15.2514C10.21 15.2514 8.75 13.7914 8.75 12.0014C8.75 10.2114 10.21 8.7514 12 8.7514C13.79 8.7514 15.25 10.2114 15.25 12.0014C15.25 13.7914 13.79 15.2514 12 15.2514Z" />
    </symbol>
    <symbol viewBox="0 0 24 24" id="monitor" xmlns="http://www.w3.org/2000/svg">
        <rect width="24" height="24" fill="white"/>
        <path fill-rule="evenodd" clip-rule="evenodd" d="M6.93417 2H17.0658C17.9523 1.99995 18.7161 1.99991 19.3278 2.08215C19.9833 2.17028 20.6117 2.36902 21.1213 2.87868C21.631 3.38835 21.8297 4.0167 21.9179 4.67221C22.0001 5.28388 22.0001 6.0477 22 6.9342V13.0658C22.0001 13.9523 22.0001 14.7161 21.9179 15.3278C21.8297 15.9833 21.631 16.6117 21.1213 17.1213C20.6117 17.631 19.9833 17.8297 19.3278 17.9179C18.7161 18.0001 17.9523 18.0001 17.0658 18L13 18V20H17C17.5523 20 18 20.4477 18 21C18 21.5523 17.5523 22 17 22H7C6.44772 22 6 21.5523 6 21C6 20.4477 6.44772 20 7 20H11V18L6.93417 18C6.04769 18.0001 5.28387 18.0001 4.67221 17.9179C4.0167 17.8297 3.38835 17.631 2.87868 17.1213C2.36902 16.6117 2.17028 15.9833 2.08215 15.3278C1.99991 14.7161 1.99995 13.9523 2 13.0658V6.93417C1.99995 6.04769 1.99991 5.28387 2.08215 4.67221C2.17028 4.0167 2.36902 3.38835 2.87868 2.87868C3.38835 2.36902 4.0167 2.17028 4.67221 2.08215C5.28387 1.99991 6.04769 1.99995 6.93417 2Z" />
    </symbol>
</svg>
