<?xml version="1.0" encoding="utf-8" ?>
<svg xmlns="http://www.w3.org/2000/svg">
    <symbol viewBox="0 0 20 28" id="user" xmlns="http://www.w3.org/2000/svg">
        <path d="M20 21.859c0 2.281-1.5 4.141-3.328 4.141h-13.344c-1.828 0-3.328-1.859-3.328-4.141 0-4.109 1.016-8.859 5.109-8.859 1.266 1.234 2.984 2 4.891 2s3.625-0.766 4.891-2c4.094 0 5.109 4.75 5.109 8.859zM16 8c0 3.313-2.688 6-6 6s-6-2.688-6-6 2.688-6 6-6 6 2.688 6 6z"></path>
    </symbol>
    <symbol viewBox="0 0 16 16" id="menu" xmlns="http://www.w3.org/2000/svg">
        <path d="M0 0h4v4H0V0zm0 6h4v4H0V6zm0 6h4v4H0v-4zM6 0h4v4H6V0zm0 6h4v4H6V6zm0 6h4v4H6v-4zm6-12h4v4h-4V0zm0 6h4v4h-4V6zm0 6h4v4h-4v-4z" fill-rule="evenodd"/>
    </symbol>
    <symbol viewBox="0 0 16 20" id="dollar" xmlns="http://www.w3.org/2000/svg">
        <path d="M12 20.75C11.8019 20.7474 11.6126 20.6676 11.4725 20.5275C11.3324 20.3874 11.2526 20.1981 11.25 20V4C11.25 3.80109 11.329 3.61032 11.4697 3.46967C11.6103 3.32902 11.8011 3.25 12 3.25C12.1989 3.25 12.3897 3.32902 12.5303 3.46967C12.671 3.61032 12.75 3.80109 12.75 4V20C12.7474 20.1981 12.6676 20.3874 12.5275 20.5275C12.3874 20.6676 12.1981 20.7474 12 20.75Z" fill="#000000"/>
        <path d="M13.5 18.75H7C6.80109 18.75 6.61032 18.671 6.46967 18.5303C6.32902 18.3897 6.25 18.1989 6.25 18C6.25 17.8011 6.32902 17.6103 6.46967 17.4697C6.61032 17.329 6.80109 17.25 7 17.25H13.5C14.1615 17.3089 14.8199 17.1064 15.3339 16.6859C15.8479 16.2653 16.1768 15.6601 16.25 15C16.1768 14.3399 15.8479 13.7347 15.3339 13.3141C14.8199 12.8935 14.1615 12.691 13.5 12.75H10.5C9.97449 12.7839 9.44746 12.7136 8.94915 12.5433C8.45085 12.373 7.99107 12.106 7.5962 11.7576C7.20134 11.4092 6.87915 10.9863 6.64814 10.513C6.41712 10.0398 6.28182 9.52562 6.25 8.99998C6.28182 8.47434 6.41712 7.96016 6.64814 7.48694C6.87915 7.01371 7.20134 6.59076 7.5962 6.24235C7.99107 5.89394 8.45085 5.62692 8.94915 5.45663C9.44746 5.28633 9.97449 5.21611 10.5 5.24998H16C16.1989 5.24998 16.3897 5.329 16.5303 5.46965C16.671 5.61031 16.75 5.80107 16.75 5.99998C16.75 6.1989 16.671 6.38966 16.5303 6.53031C16.3897 6.67097 16.1989 6.74998 16 6.74998H10.5C9.83846 6.69103 9.18013 6.89353 8.6661 7.3141C8.15206 7.73468 7.82321 8.33987 7.75 8.99998C7.82321 9.6601 8.15206 10.2653 8.6661 10.6859C9.18013 11.1064 9.83846 11.3089 10.5 11.25H13.5C14.0255 11.2161 14.5525 11.2863 15.0508 11.4566C15.5492 11.6269 16.0089 11.8939 16.4038 12.2423C16.7987 12.5908 17.1208 13.0137 17.3519 13.4869C17.5829 13.9602 17.7182 14.4743 17.75 15C17.7182 15.5256 17.5829 16.0398 17.3519 16.513C17.1208 16.9863 16.7987 17.4092 16.4038 17.7576C16.0089 18.106 15.5492 18.373 15.0508 18.5433C14.5525 18.7136 14.0255 18.7839 13.5 18.75Z" fill="#000000"/>
    </symbol>
    <symbol viewBox="0 -3.5 32 32" id="mail" version="1.1" xmlns="http://www.w3.org/2000/svg" xmlns:xlink="http://www.w3.org/1999/xlink" xmlns:sketch="http://www.bohemiancoding.com/sketch/ns">
        <g id="Page-1" stroke="none" stroke-width="1" fill="none" fill-rule="evenodd" sketch:type="MSPage">
            <g id="Icon-Set-Filled" sketch:type="MSLayerGroup" transform="translate(-414.000000, -261.000000)" fill="#000000">
                <path d="M430,275.916 L426.684,273.167 L415.115,285.01 L444.591,285.01 L433.235,273.147 L430,275.916 L430,275.916 Z M434.89,271.89 L445.892,283.329 C445.955,283.107 446,282.877 446,282.634 L446,262.862 L434.89,271.89 L434.89,271.89 Z M414,262.816 L414,282.634 C414,282.877 414.045,283.107 414.108,283.329 L425.147,271.927 L414,262.816 L414,262.816 Z M445,261 L415,261 L430,273.019 L445,261 L445,261 Z" id="mail" sketch:type="MSShapeGroup">

                </path>
            </g>
        </g>
    </symbol>
</svg>
